HIERARCHY
ROOT root
{
	OFFSET	0	13.1	24.9
	CHANNELS 6  Xposition Yposition Zposition Xrotation Yrotation Zrotation
	JOINT spine_1
	{
		OFFSET	0	9.99999	0
		CHANNELS 3  Xrotation Yrotation Zrotation
		JOINT spine_2
		{
			OFFSET	0	112	-10
			CHANNELS 3  Xrotation Yrotation Zrotation
			JOINT spine_3
			{
				OFFSET	0	206.5	19.3
				CHANNELS 3  Xrotation Yrotation Zrotation
				JOINT spine_4
				{
					OFFSET	0	110.4	14.6
					CHANNELS 3  Xrotation Yrotation Zrotation
					JOINT neck_1
					{
						OFFSET	0	71.8	-50.3
						CHANNELS 3  Xrotation Yrotation Zrotation
						JOINT neck_2
						{
							OFFSET	0	86.2	-25.8
							CHANNELS 3  Xrotation Yrotation Zrotation
							JOINT head_ee
							{
								OFFSET	0	179.8	-8.7
								CHANNELS 3  Xrotation Yrotation Zrotation
								End Site
								{
									OFFSET	1	0	0
								}
							}
						}
					}
					JOINT left_clavicle
					{
						OFFSET	-43.2	22.4	-70.8
						CHANNELS 3  Xrotation Yrotation Zrotation
						JOINT left_shoulder
						{
							OFFSET	-93.9	-5.79999	48.7
							CHANNELS 3  Xrotation Yrotation Zrotation
							JOINT left_elbow
							{
								OFFSET	-291.4	-30.8	15.2
								CHANNELS 3  Xrotation Yrotation Zrotation
								JOINT left_lowarm_twist
								{
									OFFSET	-110.7	-3.89999	13.6
									CHANNELS 3  Xrotation Yrotation Zrotation
									JOINT left_hand
									{
										OFFSET	-110.7	-3.89999	13.6
										CHANNELS 3  Xrotation Yrotation Zrotation
										JOINT left_ee
										{
											OFFSET	-80.8	-5.10001	12.1
											CHANNELS 3  Xrotation Yrotation Zrotation
											End Site
											{
												OFFSET	1	0	0
											}
										}
									}
								}
							}
						}
					}
					JOINT right_clavicle
					{
						OFFSET	43.2	22.4	-70.8
						CHANNELS 3  Xrotation Yrotation Zrotation
						JOINT right_shoulder
						{
							OFFSET	93.9	-5.79999	48.7
							CHANNELS 3  Xrotation Yrotation Zrotation
							JOINT right_elbow
							{
								OFFSET	291.4	-30.8	15.2
								CHANNELS 3  Xrotation Yrotation Zrotation
								JOINT right_lowarm_twist
								{
									OFFSET	110.7	-3.89999	13.6
									CHANNELS 3  Xrotation Yrotation Zrotation
									JOINT right_hand
									{
										OFFSET	110.7	-3.89999	13.6
										CHANNELS 3  Xrotation Yrotation Zrotation
										JOINT right_ee
										{
											OFFSET	80.8	-5.10001	12.1
											CHANNELS 3  Xrotation Yrotation Zrotation
											End Site
											{
												OFFSET	1	0	0
											}
										}
									}
								}
							}
						}
					}
				}
			}
		}
	}
	JOINT left_hip
	{
		OFFSET	-82.8	-127.5	0.300001
		CHANNELS 3  Xrotation Yrotation Zrotation
		JOINT left_knee
		{
			OFFSET	-28.2	-396.7	2.2
			CHANNELS 3  Xrotation Yrotation Zrotation
			JOINT left_ankle
			{
				OFFSET	-11.7	-411.3	35.4
				CHANNELS 3  Xrotation Yrotation Zrotation
				JOINT left_toes
				{
					OFFSET	0	-60	-88.6
					CHANNELS 3  Xrotation Yrotation Zrotation
					JOINT left_foot_ee
					{
						OFFSET	-22.5	-16.5	-42.2
						CHANNELS 3  Xrotation Yrotation Zrotation
						End Site
						{
							OFFSET	1	0	0
						}
					}
				}
			}
		}
	}
	JOINT right_hip
	{
		OFFSET	82.8	-127.5	0.300001
		CHANNELS 3  Xrotation Yrotation Zrotation
		JOINT right_knee
		{
			OFFSET	28.2	-396.7	2.2
			CHANNELS 3  Xrotation Yrotation Zrotation
			JOINT right_ankle
			{
				OFFSET	11.7	-411.3	35.4
				CHANNELS 3  Xrotation Yrotation Zrotation
				JOINT right_toes
				{
					OFFSET	0	-60	-88.6
					CHANNELS 3  Xrotation Yrotation Zrotation
					JOINT right_foot_ee
					{
						OFFSET	22.5	-16.5	-42.2
						CHANNELS 3  Xrotation Yrotation Zrotation
						End Site
						{
							OFFSET	1	0	0
						}
					}
				}
			}
		}
	}
}
MOTION
Frames: 13
Frame Time: 0.02
2800.94 716.97 -1473.77 -12.6744662564 78.9119698259 16.9731463071 2.74745 -0.465211 -1.51786 2.74866 -0.367695 -1.54438 2.75836 -0.111306 -1.58363 2.75504 -0.359984 -1.54619 -16.0412 -3.14972 0.23548 -16.0783 -6.17332 -0.878251 -0.0 0.0 -0.0 5.21013 20.0529 10.0376 8.66293 -39.275 67.5439 2.05218 -45.466 0.859911 -49.7016 -4.03686 4.66721 2.14513 10.0513 18.2391 -0.0 0.0 -0.0 8.14679 -20.7075 -14.4448 -23.7316 0.0728013 -58.5017 0.220186 6.22501 -0.011973 -45.0204 3.50021 -4.39747 5.9449 -32.2149 -50.9527 0.0 0.0 0.0 -10.0958 19.3989 -11.1256 0.200978 -0.00832813 -0.0297173 31.7079 -32.2524 -5.16652 4.48944 -0.0 -0.0 -0.0 0.0 -0.0 25.7531 11.0941 -5.37587 6.66819 0.331434 0.968653 -7.24966 -8.25815 -1.07643 -20.3737 0.0 0.0 0.0 0.0 0.0 
2800.94 716.97 -1473.77 -11.7097658627 78.0000029429 15.9885604867 2.74745 -0.465211 -1.51786 2.74866 -0.367695 -1.54438 2.75836 -0.111306 -1.58363 2.75504 -0.359984 -1.54619 -16.0412 -3.14972 0.23548 -16.0783 -6.17332 -0.878251 -0.0 0.0 -0.0 5.21013 20.0529 10.0376 8.66293 -39.275 67.5439 2.05218 -45.466 0.859911 -49.7016 -4.03686 4.66721 2.14513 10.0513 18.2391 -0.0 0.0 -0.0 8.14679 -20.7075 -14.4448 -23.7316 0.0728013 -58.5017 0.220186 6.22501 -0.011973 -45.0204 3.50021 -4.39747 5.9449 -32.2149 -50.9527 0.0 0.0 0.0 -10.0958 19.3989 -11.1256 0.200978 -0.00832813 -0.0297173 31.7079 -32.2524 -5.16652 4.48944 -0.0 -0.0 -0.0 0.0 -0.0 25.7531 11.0941 -5.37587 6.66819 0.331434 0.968653 -7.24966 -8.25815 -1.07643 -20.3737 0.0 0.0 0.0 0.0 0.0 
2759.44234577 723.846 -1499.69415466 -13.8491133392 79.6457683294 17.10375551 2.65893 -0.448768 -1.31141 2.65981 -0.364418 -1.3373 2.6682 -0.139619 -1.37901 2.66572 -0.355636 -1.33966 -14.0906 0.279645 0.307842 -14.0904 0.345937 0.380319 -0.0 0.0 -0.0 3.87803 22.4627 8.05092 5.94806 -41.0049 67.7606 1.75153 -40.9431 0.653924 -50.8817 -4.17547 4.72822 2.67549 4.11001 19.7752 -0.0 0.0 -0.0 9.88679 -23.9884 -16.5721 -24.8978 -0.0834163 -55.739 0.280276 7.90462 -0.0193645 -45.0187 3.50001 -4.39736 5.64211 -31.5175 -48.2791 0.0 0.0 0.0 -11.4128 18.0741 -11.2752 -1.26836 0.0501434 0.188185 25.9139 -29.732 -4.25752 8.61518 -0.0 -0.0 -0.0 0.0 -0.0 25.5329 11.2259 -5.87327 -0.0420791 -0.00173023 -0.00622563 -6.23918 -9.26537 -0.924869 -19.8096 0.0 0.0 0.0 0.0 0.0 
2741.43178801 726.725 -1512.74690868 -14.7526258482 80.1639765748 17.748500366 2.69823 -0.297182 -1.32189 2.69918 -0.212472 -1.33812 2.70396 0.00959105 -1.35484 2.70146 -0.204482 -1.33936 -11.1843 2.92597 -0.274927 -11.1983 5.7127 0.518014 -0.0 0.0 -0.0 3.5182 23.7094 7.5503 3.3796 -41.5351 66.9182 1.65512 -39.3451 0.59176 -50.5966 -4.14186 4.71374 2.73576 0.630855 18.862 -0.0 0.0 -0.0 10.3462 -24.9874 -17.0516 -24.979 0.118518 -55.4792 0.258094 7.28605 -0.0164326 -47.0737 3.73288 -4.52117 5.14281 -31.7039 -44.0866 0.0 0.0 0.0 -11.0742 17.9009 -10.9219 -2.24154 0.0857819 0.333284 24.0906 -27.1568 -3.88119 11.4225 -0.0 -0.0 -0.0 0.0 -0.0 25.0449 10.8241 -6.87132 -2.05642 -0.0791927 -0.305637 -1.5133 -14.5993 -0.223507 -19.1549 0.0 0.0 0.0 0.0 0.0 
2724.60222755 730.676 -1520.92417323 -17.5540384644 80.6946507664 20.5231547424 2.73689 -0.255866 -1.26743 2.73776 -0.174704 -1.28114 2.74149 0.0366775 -1.29248 2.73919 -0.167888 -1.28205 -11.0868 3.67691 -0.173572 -11.1079 7.06385 0.812062 -0.0 0.0 -0.0 2.95698 24.5848 6.79687 1.22337 -42.733 66.3828 1.55456 -37.5966 0.529192 -50.5045 -4.13103 4.70903 2.97245 -1.43463 19.7135 -0.0 0.0 -0.0 10.6333 -25.4629 -17.3691 -23.9416 1.26192 -55.0755 0.313178 8.8187 -0.0241491 -46.2579 3.63991 -4.47302 5.18879 -31.8625 -44.4468 0.0 0.0 0.0 -10.8606 17.5377 -11.4191 -3.18183 0.117867 0.474023 21.9251 -27.5494 -3.59612 12.881 -0.0 -0.0 -0.0 0.0 -0.0 24.7383 10.7662 -7.10119 -2.76799 -0.104031 -0.412017 -2.13187 -13.4107 -0.314649 -19.6181 0.0 0.0 0.0 0.0 0.0 
2708.64528844 733.514 -1532.13931555 -21.2713854613 80.500840933 23.6222325812 2.77313 -0.155574 -1.25897 2.77401 -0.0751537 -1.26631 2.77545 0.13175 -1.26168 2.77324 -0.0691455 -1.26665 -7.428 6.0841 -1.87389 -7.41861 12.6646 -0.593265 -0.0 0.0 -0.0 2.8261 24.7457 6.62444 -3.37925 -41.1626 63.9179 1.54755 -37.4715 0.52492 -49.8054 -4.049 4.67269 2.62897 -3.62956 16.3772 -0.0 0.0 -0.0 11.1331 -25.9277 -17.9903 -24.304 3.85565 -55.9963 0.344194 9.67629 -0.0291337 -49.5499 4.01913 -4.65915 4.89382 -31.7097 -42.1424 0.0 0.0 0.0 -10.4236 16.7918 -11.9941 -5.12366 0.176788 0.766196 21.1018 -27.5526 -3.47814 16.7076 -0.0 -0.0 -0.0 0.0 -0.0 24.6181 11.2517 -7.80374 -3.51949 -0.128824 -0.524685 1.22769 -17.3601 0.181355 -18.5836 0.0 0.0 0.0 0.0 0.0 
2708.95835645 733.514 -1532.63143076 -20.6273554861 80.2150459424 22.9689764903 2.77313 -0.155574 -1.25897 2.77401 -0.0751537 -1.26631 2.77545 0.13175 -1.26168 2.77324 -0.0691455 -1.26665 -7.428 6.0841 -1.87389 -7.41861 12.6646 -0.593265 -0.0 0.0 -0.0 2.8261 24.7457 6.62444 -3.37925 -41.1626 63.9179 1.54755 -37.4715 0.52492 -49.8054 -4.049 4.67269 2.62897 -3.62956 16.3772 -0.0 0.0 -0.0 11.1331 -25.9277 -17.9903 -24.304 3.85565 -55.9963 0.344194 9.67629 -0.0291337 -49.5499 4.01913 -4.65915 4.89382 -31.7097 -42.1424 0.0 0.0 0.0 -10.4236 16.7918 -11.9941 -5.12366 0.176788 0.766196 21.1018 -27.5526 -3.47814 16.7076 -0.0 -0.0 -0.0 0.0 -0.0 24.6181 11.2517 -7.80374 -3.51949 -0.128824 -0.524685 1.22769 -17.3601 0.181355 -18.5836 0.0 0.0 0.0 0.0 0.0 
2708.93526454 733.514 -1532.59532987 -20.6733849092 80.2360858872 23.0156839294 2.77313 -0.155574 -1.25897 2.77401 -0.0751537 -1.26631 2.77545 0.13175 -1.26168 2.77324 -0.0691455 -1.26665 -7.428 6.0841 -1.87389 -7.41861 12.6646 -0.593265 -0.0 0.0 -0.0 2.8261 24.7457 6.62444 -3.37925 -41.1626 63.9179 1.54755 -37.4715 0.52492 -49.8054 -4.049 4.67269 2.62897 -3.62956 16.3772 -0.0 0.0 -0.0 11.1331 -25.9277 -17.9903 -24.304 3.85565 -55.9963 0.344194 9.67629 -0.0291337 -49.5499 4.01913 -4.65915 4.89382 -31.7097 -42.1424 0.0 0.0 0.0 -10.4236 16.7918 -11.9941 -5.12366 0.176788 0.766196 21.1018 -27.5526 -3.47814 16.7076 -0.0 -0.0 -0.0 0.0 -0.0 24.6181 11.2517 -7.80374 -3.51949 -0.128824 -0.524685 1.22769 -17.3601 0.181355 -18.5836 0.0 0.0 0.0 0.0 0.0 
2696.99443823 732.399 -1539.94114803 -25.9406951567 80.9311609279 28.1381805441 2.79507 -0.0675066 -1.2416 2.79593 0.01163 -1.24338 2.79544 0.213241 -1.22501 2.79335 0.0171128 -1.24331 -7.40511 7.81548 -3.21734 -7.37317 16.8446 -1.57231 -0.0 0.0 -0.0 2.39062 24.0431 6.01449 -6.74569 -42.0184 62.782 1.4048 -34.832 0.440688 -49.9728 -4.0686 4.68148 2.50194 -3.70492 15.4563 -0.0 0.0 -0.0 11.6595 -26.077 -18.7226 -22.7097 4.10941 -56.146 0.376809 10.5734 -0.0348673 -50.4431 4.12381 -4.70588 4.50949 -31.2159 -39.2766 0.0 0.0 0.0 -7.23712 14.1732 -13.0175 -11.936 0.304563 1.80314 21.6167 -22.9452 -3.37741 19.9063 -0.0 -0.0 -0.0 0.0 -0.0 24.3196 11.624 -8.40879 -3.90868 -0.141082 -0.583156 5.69467 -19.3233 0.836608 -18.7142 0.0 0.0 0.0 0.0 0.0 
2697.31277011 732.399 -1540.43856733 -25.208200975 80.6834577006 27.3961582859 2.79507 -0.0675066 -1.2416 2.79593 0.01163 -1.24338 2.79544 0.213241 -1.22501 2.79335 0.0171128 -1.24331 -7.40511 7.81548 -3.21734 -7.37317 16.8446 -1.57231 -0.0 0.0 -0.0 2.39062 24.0431 6.01449 -6.74569 -42.0184 62.782 1.4048 -34.832 0.440688 -49.9728 -4.0686 4.68148 2.50194 -3.70492 15.4563 -0.0 0.0 -0.0 11.6595 -26.077 -18.7226 -22.7097 4.10941 -56.146 0.376809 10.5734 -0.0348673 -50.4431 4.12381 -4.70588 4.50949 -31.2159 -39.2766 0.0 0.0 0.0 -7.23712 14.1732 -13.0175 -11.936 0.304563 1.80314 21.6167 -22.9452 -3.37741 19.9063 -0.0 -0.0 -0.0 0.0 -0.0 24.3196 11.624 -8.40879 -3.90868 -0.141082 -0.583156 5.69467 -19.3233 0.836608 -18.7142 0.0 0.0 0.0 0.0 0.0 
2686.44188889 731.78 -1547.44854624 -34.3694582593 81.4462397682 36.3236441575 3.07471 0.0350221 -1.10587 3.07538 0.105316 -1.1014 3.07311 0.277469 -1.07107 3.07153 0.104842 -1.10145 -4.54637 10.4193 -4.53547 -4.3071 22.5312 -2.94084 -0.0 0.0 -0.0 1.76205 23.6005 5.13591 -9.24181 -42.7314 62.5795 1.29049 -32.5881 0.377234 -50.6502 -4.14817 4.71648 2.18261 -2.07423 13.9092 -0.0 0.0 -0.0 12.0485 -26.1389 -19.2791 -22.7503 6.99788 -56.4589 0.381946 10.7142 -0.0358161 -52.6809 4.38911 -4.81572 4.99548 -31.5276 -42.9315 0.0 0.0 0.0 -4.82897 7.36555 -13.472 -19.1101 0.305166 2.90315 23.2881 -20.666 -3.52609 23.8501 -0.0 -0.0 -0.0 0.0 -0.0 24.0702 12.3025 -9.09891 -2.19317 -0.0840689 -0.326058 8.11186 -21.9111 1.19534 -20.4338 0.0 0.0 0.0 0.0 0.0 
2676.21557886 733.602 -1553.42531166 -36.0490573943 80.9676529338 37.5843271524 3.198 0.147541 -0.953244 3.19849 0.207897 -0.941926 3.19487 0.35175 -0.898178 3.1938 0.205492 -0.942453 -6.51547 12.2236 -5.70095 -6.33241 26.7851 -3.35433 -0.0 0.0 -0.0 1.95769 23.3603 5.39139 -12.8145 -42.2299 60.8442 1.18913 -30.4995 0.324198 -49.8756 -4.05722 4.67638 2.27551 -4.50264 13.5473 -0.0 0.0 -0.0 12.2533 -26.1115 -19.5902 -20.8648 7.80493 -57.1514 0.421401 11.7914 -0.0435157 -52.8662 4.41126 -4.82435 4.37496 -30.9035 -38.2959 0.0 0.0 0.0 -1.1194 7.07414 -14.2688 -23.8087 0.231011 3.62012 23.0926 -18.4629 -3.43465 25.2842 -0.0 -0.0 -0.0 0.0 -0.0 23.4393 12.1686 -8.98008 -1.80171 -0.0699805 -0.267632 10.7195 -23.1858 1.57595 -19.0529 0.0 0.0 0.0 0.0 0.0 
2678.54852561 733.602 -1556.96541394 -30.7693190448 79.5959200361 32.228215086 3.198 0.147541 -0.953244 3.19849 0.207897 -0.941926 3.19487 0.35175 -0.898178 3.1938 0.205492 -0.942453 -6.51547 12.2236 -5.70095 -6.33241 26.7851 -3.35433 -0.0 0.0 -0.0 1.95769 23.3603 5.39139 -12.8145 -42.2299 60.8442 1.18913 -30.4995 0.324198 -49.8756 -4.05722 4.67638 2.27551 -4.50264 13.5473 -0.0 0.0 -0.0 12.2533 -26.1115 -19.5902 -20.8648 7.80493 -57.1514 0.421401 11.7914 -0.0435157 -52.8662 4.41126 -4.82435 4.37496 -30.9035 -38.2959 0.0 0.0 0.0 -1.1194 7.07414 -14.2688 -23.8087 0.231011 3.62012 23.0926 -18.4629 -3.43465 25.2842 -0.0 -0.0 -0.0 0.0 -0.0 23.4393 12.1686 -8.98008 -1.80171 -0.0699805 -0.267632 10.7195 -23.1858 1.57595 -19.0529 0.0 0.0 0.0 0.0 0.0 
